# xmcd CD database file generated by RipIT.
#
# Track frame offsets:
#	150
#	19480
#	36663
#	53758
#	70111
#	88824
#	108844
#	126574
#	139619
#	156389
#	171204
#	184376
#	205376
#	221904
#	230376
#	249126
#	259964
#	278881
#	296428
#	312583
#	331834
#
# Disc length: 4633 seconds
#
# Revision: 1
# Processed by: cddbd v1.5.1PL2 Copyright (c) Steve Scherf et al.
# Submitted via: RipIT 3.4 www.suwald.com/ripit/ripit.html at Tue Jan 3 13:08:09 CET 2006.
#
DISCID=4d121715
DTITLE=Enya - The Best Of Enya
DYEAR=2002
DGENRE=New Age
TTITLE0=May It Be
TTITLE1=The Council Of Elround
TTITLE2=Wild Child
TTITLE3=Only Time
TTITLE4=Flora'a Secret
TTITLE5=Orinoco Flow
TTITLE6=Caribbean Blue
TTITLE7=Book Of Days
TTITLE8=Anywhere Is
TTITLE9=Only If
TTITLE10=The Celts
TTITLE11=China Roses
TTITLE12=Shepherd Moons
TTITLE13=Ebudae
TTITLE14=Storms In Africa
TTITLE15=Watermark
TTITLE16=Paint The Sky With Stars
TTITLE17=Marble Halls
TTITLE18=On My Way Home
TTITLE19=The Memory Of Trees
TTITLE20=Boadicea
EXTD=ID3G: 10 YEAR: 2002
EXTT0=
EXTT1=
EXTT2=
EXTT3=
EXTT4=
EXTT5=
EXTT6=
EXTT7=
EXTT8=
EXTT9=
EXTT10=
EXTT11=
EXTT12=
EXTT13=
EXTT14=
EXTT15=
EXTT16=
EXTT17=
EXTT18=
EXTT19=
EXTT20=
PLAYORDER=
